<svg width="108px" height="108px" xmlns="http://www.w3.org/2000/svg" viewBox="134.947265625 -72.1 230.10546875 294.2" style="background: none;" preserveAspectRatio="xMidYMid"><defs><filter id="editing-vr"><feFlood flood-color="#3028c9" flood-opacity="0.7" result="c1"></feFlood><feFlood flood-color="#3028c9" flood-opacity="0.7" result="c3"></feFlood><feComposite operator="in" in="c1" in2="SourceAlpha" result="text-c1"></feComposite><feComposite operator="in" in="c3" in2="SourceAlpha" result="text-c3"></feComposite><feOffset in="text-c1" dx="5" dy="-1" result="text1"></feOffset><feOffset in="text-c3" dx="-5" dy="1" result="text3"></feOffset><feBlend in="SourceGraphic" in2="text1" mode="multiply" result="text4"></feBlend><feBlend in="text4" in2="text3" mode="multiply"></feBlend></filter></defs><g filter="url(#editing-vr)"><g transform="translate(176.13052368164062, 133.8199977874756)"><path d="M17.65 0L-2.25 0L29.06-114.18L65.22-114.18L73.18-48.96L105.36-114.18L135.63-114.18L138.75-28.72L138.75-28.72Q139.44-11.76 147.74-6.57L147.74-6.57L147.74-6.57Q145.84-3.11 140.30 0.17L140.30 0.17L140.30 0.17Q134.77 3.46 127.41 3.46L127.41 3.46L127.41 3.46Q120.06 3.46 115.74 1.38L115.74 1.38L115.74 1.38Q111.41-0.69 108.99-4.15L108.99-4.15L108.99-4.15Q104.67-10.38 104.67-22.32L104.67-22.32L104.67-75.77L70.58 0L49.13 0L37.02-77.68L17.65 0Z" fill="#000000"></path></g></g><style>text {
  font-size: 64px;
  font-family: Arial Black;
  dominant-baseline: central;
  text-anchor: middle;
}</style></svg>